<svg width="23" height="24" viewBox="0 0 23 24" fill="none" xmlns="http://www.w3.org/2000/svg">
<g clip-path="url(#clip0_4_3038)">
<path d="M12.29 11.71V15.71H14.1822V11.71H12.29ZM8.50557 11.71V15.71H10.3978V11.71H8.50557ZM4.72112 11.71V15.71H6.61334V11.71H4.72112ZM8.50557 11.71V15.71H10.3978V11.71H8.50557ZM12.29 11.71V15.71H14.1822V11.71H12.29ZM4.72112 11.71V15.71H6.61334V11.71H4.72112ZM4.72112 11.71V15.71H6.61334V11.71H4.72112ZM8.50557 11.71V15.71H10.3978V11.71H8.50557ZM12.29 11.71V15.71H14.1822V11.71H12.29ZM18.4965 7.85L12.0156 1L10.6722 2.42L14.7688 6.74C15.45 7.46 16.0934 7.59 17.0584 7.59V7.71H1.85439V7.59C2.81943 7.59 3.46279 7.46 4.14399 6.74L8.23119 2.42L6.88771 1L0.38792 7.82C1.37464e-05 8.23 -0.056753 8.57 0.0473194 9.11L1.9017 18.91C1.99631 19.42 2.32745 19.71 2.82889 19.71H11.3439V17.71H3.6047L2.09092 9.71H16.8124L16.6232 10.72H18.5533L18.856 9.11C18.9601 8.58 18.8655 8.24 18.4965 7.85Z" fill="white"/>
<path d="M17.3233 23.0001V20.0001C17.3233 19.3801 16.9732 19.0001 16.3772 19.0001H13.5388V17.0001H18.6573V16.8801C17.8247 16.7501 17.3233 16.1801 17.3233 15.1101V13.0001H19.2155V16.0001C19.2155 16.6201 19.5656 17.0001 20.1616 17.0001H22.9999V19.0001H17.8815V19.1201C18.7141 19.2501 19.2155 19.8201 19.2155 20.8901V23.0001H17.3233Z" fill="white"/>
</g>
<defs>
<clipPath id="clip0_4_3038">
<rect width="23" height="22" fill="white" transform="translate(0 1)"/>
</clipPath>
</defs>
</svg>
