<svg width="20" height="20" viewBox="0 0 20 20" fill="none" xmlns="http://www.w3.org/2000/svg">
<path d="M17.775 6.72501C17.675 6.56667 17.5667 6.43334 17.4834 6.32501C17.45 6.07501 17.4 5.78334 17.3417 5.49167C17.2417 5.03334 17.1084 4.50834 16.9334 4.00834C16.775 3.51667 16.5667 3.00834 16.325 2.60834C16.2084 2.40834 16.0584 2.20001 15.875 2.02501C15.6917 1.85834 15.3917 1.66667 15 1.66667H8.33335C7.98335 1.66667 7.72502 1.85001 7.60002 1.95834C7.45835 2.08334 7.34169 2.22501 7.25002 2.35834C7.06669 2.62501 6.90002 2.95001 6.76669 3.25834C6.62502 3.57501 6.50002 3.90001 6.41669 4.18334C6.37502 4.32501 6.33335 4.46667 6.30835 4.59167C6.28335 4.70001 6.25002 4.85001 6.25002 5.00001H7.91669C7.91669 5.01667 7.91669 5.02501 7.91669 5.02501C7.91669 5.02501 7.91669 5.00834 7.93335 4.95834C7.95002 4.88334 7.97502 4.79167 8.00835 4.68334C8.07502 4.45834 8.17502 4.18334 8.29169 3.925C8.40002 3.68334 8.50835 3.47501 8.60002 3.33334H14.8167C14.8334 3.36667 14.8667 3.40834 14.9 3.46667C15.05 3.71667 15.2084 4.09167 15.3584 4.53334C15.5 4.96667 15.625 5.43334 15.7084 5.83334H13.75L14.5834 7.50001H16.2834C16.3167 7.54167 16.3584 7.59167 16.3917 7.65001C16.4417 7.73334 16.4917 7.80834 16.5334 7.88334L15.4584 8.42501C15.05 8.62501 14.8834 9.12501 15.0917 9.54167C15.2917 9.95001 15.7917 10.1167 16.2084 9.90834L16.6667 9.68334V11.6667H16.4167C15.5 11.6667 15 11.9083 15 12.8583H14.9417C14.8417 12.3917 14.6167 11.9917 14.4417 11.725C14.3334 11.5667 14.2334 11.4333 14.1417 11.325C14.1167 11.075 14.0667 10.7833 14.0084 10.4917C13.9084 10.0333 13.775 9.50834 13.6 9.00834C13.4417 8.51667 13.2334 8.00834 12.9917 7.60834C12.875 7.40834 12.725 7.20001 12.5417 7.02501C12.3584 6.85834 12.0584 6.66667 11.6667 6.66667H5.00002C4.60835 6.66667 4.31669 6.85834 4.13335 7.02501C3.94169 7.20001 3.79169 7.40834 3.67502 7.60834C3.43335 8.00834 3.22502 8.51667 3.06669 9.00834C2.90002 9.50834 2.75835 10.0333 2.65835 10.4917C2.60002 10.7833 2.55002 11.075 2.52502 11.325C2.43335 11.4333 2.33335 11.5667 2.22502 11.725C1.99169 12.075 1.67502 12.65 1.66669 13.3083C1.66669 13.325 1.66669 13.3333 1.66669 13.35V17.5C1.66669 17.9583 2.04169 18.3333 2.50002 18.3333H5.83335C6.29169 18.3333 6.66669 17.9583 6.66669 17.5H10C10 17.9583 10.375 18.3333 10.8334 18.3333H14.1667C14.625 18.3333 15 17.9583 15 17.5V13.3333H17.5C17.9584 13.3333 18.3334 12.9583 18.3334 12.5V8.35834C18.3334 8.34167 18.3334 8.31667 18.3334 8.3C18.325 7.65 18.0084 7.07501 17.775 6.72501ZM4.64169 9.53334C4.79169 9.09167 4.95002 8.71667 5.10002 8.46667C5.13335 8.40834 5.16669 8.36667 5.19169 8.33334H11.4834C11.5 8.36667 11.5334 8.40834 11.5667 8.46667C11.7167 8.71667 11.875 9.09167 12.025 9.53334C12.1667 9.96667 12.2917 10.4333 12.375 10.8333H4.29169C4.37502 10.4333 4.50002 9.96667 4.64169 9.53334ZM13.3334 16.6667H11.6667V15.8333H5.00002V16.6667H3.33335V14.6833L3.79169 14.9083C4.20835 15.1167 4.70835 14.95 4.91669 14.5417C5.11669 14.125 4.95002 13.625 4.54169 13.425L3.47502 12.8833C3.50835 12.8083 3.55835 12.7333 3.60835 12.65C3.65002 12.5917 3.68335 12.5417 3.71669 12.5H12.95C12.9834 12.5417 13.025 12.5917 13.0584 12.65C13.1084 12.7333 13.1584 12.8083 13.2 12.8833L12.125 13.425C11.7167 13.625 11.55 14.125 11.7584 14.5417C11.9584 14.95 12.4584 15.1167 12.875 14.9083L13.3334 14.6833V16.6667Z" fill="#46B0FB"/>
</svg>
