<svg width="109" height="100" viewBox="0 0 109 100" fill="none" xmlns="http://www.w3.org/2000/svg">
<path opacity="0.5" d="M53.9744 100C81.5886 100 103.974 77.6142 103.974 50C103.974 22.3858 81.5886 0 53.9744 0C26.3601 0 3.97437 22.3858 3.97437 50C3.97437 77.6142 26.3601 100 53.9744 100Z" fill="#EFEFEF"/>
<path d="M91.9595 58.0651L91.1702 65.2884L89.226 83.1551C88.6722 88.2446 88.3953 90.7894 86.6856 92.3232C84.9758 93.857 82.416 93.857 77.2964 93.857H32.7248C27.6059 93.857 25.0464 93.857 23.3367 92.3235C21.6271 90.79 21.3498 88.2455 20.7954 83.1567L18.3361 60.5844L18.0632 58.0651H91.9595Z" fill="#D1D1D1"/>
<path d="M91.9595 58.0651L91.1702 65.2884L18.3361 60.5844L18.0632 58.0651H91.9595Z" fill="#A6A6A6"/>
<path d="M89.6794 52.1506L107.026 29.8312" stroke="#A6A6A6" stroke-width="2" stroke-linecap="round" stroke-linejoin="round"/>
<path d="M19.3204 52.1506L1.97437 29.8312" stroke="#A6A6A6" stroke-width="2" stroke-linecap="round" stroke-linejoin="round"/>
<path d="M92.3148 51.0288H16.704C15.2775 51.0288 14.5643 51.0288 14.0547 51.376C13.8478 51.517 13.6691 51.6957 13.5281 51.9026C13.1809 52.4122 13.1809 53.1254 13.1809 54.5519C13.1809 55.9784 13.1809 56.6916 13.5281 57.2012C13.6691 57.4081 13.8478 57.5868 14.0547 57.7278C14.5643 58.075 15.2775 58.075 16.704 58.075H92.3148C93.7413 58.075 94.4545 58.075 94.9641 57.7278C95.1711 57.5868 95.3497 57.4081 95.4907 57.2012C95.8379 56.6916 95.8379 55.9784 95.8379 54.5519C95.8379 53.1254 95.8379 52.4122 95.4907 51.9026C95.3497 51.6957 95.1711 51.517 94.9641 51.376C94.4545 51.0288 93.7413 51.0288 92.3148 51.0288Z" fill="#D1D1D1"/>
<path d="M55.0359 68.4868V83.0416" stroke="white" stroke-width="2" stroke-linecap="round" stroke-linejoin="round"/>
<path d="M43.9558 68.4868V83.0416" stroke="white" stroke-width="2" stroke-linecap="round" stroke-linejoin="round"/>
<path d="M66.116 68.4868V83.0416" stroke="white" stroke-width="2" stroke-linecap="round" stroke-linejoin="round"/>
<path d="M31.5993 45.0318C32.638 45.0318 33.4801 44.1814 33.4801 43.1325C33.4801 42.0835 32.638 41.2332 31.5993 41.2332C30.5606 41.2332 29.7185 42.0835 29.7185 43.1325C29.7185 44.1814 30.5606 45.0318 31.5993 45.0318Z" fill="#A6A6A6"/>
<path d="M86.5038 13.8304C88.7132 13.8304 90.5043 12.0396 90.5043 9.83044C90.5043 7.6213 88.7132 5.83044 86.5038 5.83044C84.2943 5.83044 82.5032 7.6213 82.5032 9.83044C82.5032 12.0396 84.2943 13.8304 86.5038 13.8304Z" fill="#A6A6A6"/>
<path d="M53.9744 38C62.2586 38 68.9744 31.2843 68.9744 23C68.9744 14.7157 62.2586 8 53.9744 8C45.6901 8 38.9744 14.7157 38.9744 23C38.9744 31.2843 45.6901 38 53.9744 38Z" fill="#EA6C2F"/>
<path d="M58.9244 19.46L57.5144 18.05L55.3844 20.17C54.7544 20.81 54.6544 21.7 55.0044 22.43L54.9144 22.53L50.4344 18.05L49.0244 19.46L51.8544 22.29C52.2244 22.66 52.2944 23.27 51.8544 23.71L49.0244 26.54L50.4344 27.95L52.5644 25.83C53.1944 25.19 53.2944 24.3 52.9444 23.57L53.0344 23.47L57.5144 27.95L58.9244 26.54L56.0944 23.71C55.7244 23.34 55.6544 22.73 56.0944 22.29L58.9244 19.46Z" fill="white"/>
<path d="M53.9744 13C48.4544 13 43.9744 17.48 43.9744 23C43.9744 28.52 48.4544 33 53.9744 33C59.4944 33 63.9744 28.52 63.9744 23C63.9744 17.48 59.4944 13 53.9744 13ZM53.9744 31C49.5544 31 45.9744 27.42 45.9744 23C45.9744 18.58 49.5544 15 53.9744 15C58.3944 15 61.9744 18.58 61.9744 23C61.9744 27.42 58.3944 31 53.9744 31Z" fill="white"/>
<path d="M84.9476 33.2707L83.2032 32.2636L81.6793 34.8889C81.2319 35.6781 81.367 36.5726 81.8993 37.1933L81.8377 37.3144L76.2954 34.1146L75.2883 35.8589L78.7893 37.8803C79.2471 38.1445 79.4748 38.7214 79.1606 39.2657L77.1392 42.7668L78.8836 43.7739L80.4075 41.1486C80.8549 40.3594 80.7198 39.4649 80.1875 38.8442L80.2491 38.7231L85.7914 41.9229L86.7985 40.1786L83.2975 38.1572C82.8397 37.893 82.612 37.3161 82.9262 36.7718L84.9476 33.2707Z" fill="#D1D1D1"/>
<path d="M20.9176 6.95729L19.0249 7.64618L20.0564 10.5011C20.3734 11.3511 21.1454 11.8225 21.9631 11.8138L22.0163 11.9388L16.0025 14.1277L16.6914 16.0204L20.4903 14.6377C20.987 14.4569 21.5753 14.6532 21.7902 15.2439L23.1729 19.0427L25.0656 18.3538L24.0341 15.4989C23.7172 14.649 22.9451 14.1775 22.1274 14.1863L22.0743 14.0612L28.088 11.8724L27.3991 9.97965L23.6002 11.3623C23.1036 11.5431 22.5153 11.3468 22.3003 10.7561L20.9176 6.95729Z" fill="#D1D1D1"/>
</svg>
