<svg width="20" height="20" viewBox="0 0 20 20" fill="none" xmlns="http://www.w3.org/2000/svg">
<path d="M8.33333 4.16666V3.33333H11.6667V4.16666H8.33333ZM10.8333 15H12.5V7.5H10.8333V15ZM5.83333 16.6667V7.5C5.83333 6.58333 5.41667 6.16666 4.75 5.91666V5.83333H15.3333V5.91666C14.5833 6.16666 14.1667 6.58333 14.1667 7.5V16.6667H5.83333ZM7.5 15H9.16667V7.5H7.5V15ZM5 18.3333H15C15.5 18.3333 15.8333 18 15.8333 17.5V7.5C15.8333 6.5 16.4167 5.83333 17.5 5.83333V4.16666H13.3333V2.5C13.3333 2 13 1.66666 12.5 1.66666H7.5C7 1.66666 6.66667 2 6.66667 2.5V4.16666H2.5V5.83333C3.58333 5.83333 4.16667 6.5 4.16667 7.5V17.5C4.16667 18 4.5 18.3333 5 18.3333Z" fill="#EB6C2E"/>
</svg>
