<svg width="20" height="20" viewBox="0 0 20 20" fill="none" xmlns="http://www.w3.org/2000/svg">
<path opacity="0.5" d="M10.0001 1.66669C5.40008 1.66669 1.66675 5.40002 1.66675 10C1.66675 14.6 5.40008 18.3334 10.0001 18.3334C14.6001 18.3334 18.3334 14.6 18.3334 10C18.3334 5.40002 14.6001 1.66669 10.0001 1.66669ZM11.7667 10.5917L14.1251 12.95L12.9501 14.125L9.21675 10.3917L9.14175 10.475C9.43342 11.0834 9.35008 11.825 8.82508 12.3584L7.05008 14.125L5.87508 12.95L8.23342 10.5917C8.60008 10.225 8.54175 9.71669 8.23342 9.40835L5.87508 7.05002L7.05008 5.87502L10.7834 9.60835L10.8584 9.52502C10.5667 8.91669 10.6501 8.17502 11.1751 7.64169L12.9501 5.87502L14.1251 7.05002L11.7667 9.40835C11.4001 9.77502 11.4584 10.2834 11.7667 10.5917Z" fill="#8E8E8E"/>
</svg>
