<svg width="101" height="100" viewBox="0 0 101 100" fill="none" xmlns="http://www.w3.org/2000/svg">
<path d="M67.1863 42.4301L47.6592 61.9581C46.9019 62.7154 45.6407 62.7151 44.8834 61.9581L31.6979 48.7726L34.4926 45.978L46.4522 57.6492L64.4124 39.6562L67.1863 42.4301Z" fill="#34C759"/>
<path fill-rule="evenodd" clip-rule="evenodd" d="M51.5312 10.0129C73.1344 10.5607 90.4999 28.2651 90.5 49.9995C90.4998 72.0787 72.5787 89.9998 50.4995 90C28.7651 89.9999 11.0607 72.6344 10.5129 51.0312L10.5 49.9995C10.5001 27.9203 28.4203 10.0001 50.4995 10L51.5312 10.0129ZM50.4995 13.8897C30.5494 13.8899 14.3899 30.0494 14.3897 49.9995C14.3899 69.9496 30.5494 86.1101 50.4995 86.1103L51.4321 86.0984C70.6411 85.6119 86.1119 70.1411 86.5984 50.9321L86.6103 49.9995C86.6101 30.0494 70.4496 13.8899 50.4995 13.8897Z" fill="#34C759"/>
</svg>
