<svg width="16" height="16" viewBox="0 0 16 16" fill="none" xmlns="http://www.w3.org/2000/svg">
<path d="M12.6667 11.3333C12.6667 12.0667 12.0667 12.6667 11.3333 12.6667C10.6 12.6667 10 12.0667 10 11.3333C10 10.6 10.6 10 11.3333 10C12.0667 10 12.6667 10.6 12.6667 11.3333ZM14 11.3333C14 9.86667 12.8 8.66667 11.3333 8.66667C10.5333 8.66667 9.86667 8.93333 9.26667 9.66667C8.6 10.4667 8.33333 10.6667 7.33333 10.6667H2V12H7.2C7.86667 12 8.33333 11.7333 8.6 11.2667H8.66667V11.3333C8.66667 12.8 9.86667 14 11.3333 14C12.8 14 14 12.8 14 11.3333ZM3.33333 4.66667C3.33333 3.93333 3.93333 3.33333 4.66667 3.33333C5.4 3.33333 6 3.93333 6 4.66667C6 5.4 5.4 6 4.66667 6C3.93333 6 3.33333 5.4 3.33333 4.66667ZM2 4.66667C2 6.13333 3.2 7.33333 4.66667 7.33333C5.46667 7.33333 6.13333 7.06667 6.73333 6.33333C7.46667 5.53333 7.66667 5.33333 8.66667 5.33333H14V4H8.8C8.13333 4 7.66667 4.26667 7.4 4.73333H7.33333V4.66667C7.33333 3.2 6.13333 2 4.66667 2C3.2 2 2 3.2 2 4.66667Z" fill="#46B0FB"/>
</svg>
