<svg width="16" height="16" viewBox="0 0 16 16" fill="none" xmlns="http://www.w3.org/2000/svg">
<path d="M9.33333 5.33331H8V7.99998H9.33333V5.33331Z" fill="#46B0FB"/>
<path d="M12 5.33331H10.6667V7.99998H12V5.33331Z" fill="#46B0FB"/>
<path d="M6.66667 5.33331H5.33333V7.99998H6.66667V5.33331Z" fill="#46B0FB"/>
<path d="M13.8533 2.66665H3.21333L3.10667 2.13998C2.99333 1.56665 2.66 1.33331 2.14 1.33331H0V2.66665H1.85333L3.02667 8.51998C3.13333 9.05998 3.36667 9.25331 4 9.25331V9.33331C2.9 9.33331 2 10.2333 2 11.3333C2 12.24 2.6 13 3.42 13.2466C3.36667 13.3733 3.33333 13.52 3.33333 13.6666C3.33333 14.22 3.78 14.6666 4.33333 14.6666C4.88667 14.6666 5.33333 14.22 5.33333 13.6666C5.33333 13.5466 5.31333 13.44 5.27333 13.3333H11.3867C11.3533 13.44 11.3333 13.5466 11.3333 13.6666C11.3333 14.22 11.78 14.6666 12.3333 14.6666C12.8867 14.6666 13.3333 14.22 13.3333 13.6666C13.3333 13.5466 13.3133 13.44 13.2733 13.3333H14V12H4C3.63333 12 3.33333 11.7 3.33333 11.3333C3.33333 10.9666 3.63333 10.6666 4 10.6666H12.24C13.1933 10.6666 14.0133 9.99331 14.2 9.05998L15.16 4.25998C15.3267 3.43331 14.6933 2.66665 13.8533 2.66665ZM12.8933 8.79998C12.8267 9.10665 12.5533 9.33331 12.24 9.33331H4.55333L3.31333 3.15331H3.39333C3.53333 3.73998 3.78 3.99998 4.46667 3.99998H13.8533L12.8933 8.79998Z" fill="#46B0FB"/>
</svg>
