<svg width="20" height="20" viewBox="0 0 20 20" fill="none" xmlns="http://www.w3.org/2000/svg">
<path d="M10 16C10 16 3 12.1818 3 7.54546C3.00014 6.72601 3.29166 5.93189 3.82498 5.29813C4.35831 4.66437 5.10052 4.23008 5.92543 4.0691C6.75034 3.90812 7.60704 4.03039 8.34986 4.41512C9.09268 4.79985 9.67577 5.42328 10 6.17944L9.99999 6.17944C10.3242 5.42329 10.9073 4.79985 11.6501 4.41512C12.393 4.03039 13.2497 3.90812 14.0746 4.0691C14.8995 4.23008 15.6417 4.66437 16.175 5.29813C16.7083 5.93189 16.9999 6.726 17 7.54546C17 12.1818 10 16 10 16Z" fill="#EB6C2E" stroke="#EB6C2E" stroke-width="1.5" stroke-linecap="round" stroke-linejoin="round"/>
</svg>
