<svg width="24" height="24" viewBox="0 0 24 24" fill="none" xmlns="http://www.w3.org/2000/svg">
<path d="M21.7996 12.3C22.0996 11.9 22.0996 11.4 21.7996 11.1C18.5996 6.9 15.2996 4.7 11.9996 4.7C10.4996 4.7 9.09961 5.1 7.69961 6L5.69961 4L4.29961 5.4L5.99961 7.1C4.69961 8.1 3.49961 9.4 2.19961 11.1C1.89961 11.5 1.89961 12 2.19961 12.3C5.39961 16.5 8.69961 18.7 11.9996 18.7C13.4996 18.7 14.8996 18.3 16.2996 17.4L18.2996 19.4L19.6996 18L17.9996 16.3C19.2996 15.3 20.4996 14 21.7996 12.3ZM11.9996 16.7C9.79961 16.7 7.49961 15.4 5.09961 12.7C4.49961 12.1 4.09961 11.9 3.09961 11.7V11.6C4.09961 11.5 4.49961 11.3 5.09961 10.6C5.89961 9.7 6.59961 9 7.39961 8.4L14.7996 15.8C13.8996 16.4 12.8996 16.7 11.9996 16.7ZM18.8996 12.7C18.0996 13.6 17.3996 14.3 16.5996 14.9L9.09961 7.4C10.0996 7 11.0996 6.7 11.9996 6.7C14.1996 6.7 16.4996 8 18.8996 10.7C19.4996 11.3 19.8996 11.5 20.8996 11.7V11.8C19.8996 11.9 19.3996 12.1 18.8996 12.7Z" fill="#AEAEB2"/>
</svg>
