<svg width="16" height="16" viewBox="0 0 16 16" fill="none" xmlns="http://www.w3.org/2000/svg">
<g opacity="0.5">
<path fill-rule="evenodd" clip-rule="evenodd" d="M5.66676 6.26667C5.53343 6.13333 5.33343 6 5.13343 6C4.93343 6 4.73343 6.13333 4.6001 6.26667L3.33343 8.13333L1.2001 8.8C1.0001 8.86667 0.800096 9 0.733429 9.26667C0.666762 9.53333 0.733429 9.73333 0.866762 9.86667L2.26676 11.6667L2.2001 13.9333C2.2001 14.1333 2.26676 14.3333 2.46676 14.4667C2.66676 14.6 2.86676 14.6 3.06676 14.5333L5.2001 13.8L7.33343 14.5333C7.53343 14.6 7.8001 14.6 7.93343 14.4667C8.13343 14.3333 8.2001 14.1333 8.2001 13.9333L8.13343 11.6667L9.53343 9.86667C9.66676 9.66667 9.73343 9.46667 9.66676 9.26667C9.6001 9.06667 9.4001 8.86667 9.2001 8.8L7.06676 8.13333L5.66676 6.26667ZM4.26676 9.13333L5.13343 7.86667L6.0001 9.13333C6.06676 9.26667 6.2001 9.33333 6.33343 9.4L7.8001 9.8L6.86676 11C6.8001 11.1333 6.73343 11.2667 6.73343 11.4L6.8001 12.9333L5.33343 12.4667C5.2001 12.4 5.0001 12.4 4.86676 12.4667L3.4001 13L3.46676 11.4667C3.46676 11.3333 3.4001 11.1333 3.33343 11.0667L2.4001 9.86667L3.86676 9.46667C4.06676 9.33333 4.2001 9.26667 4.26676 9.13333Z" fill="white"/>
<path d="M13.1334 10.3333C13.1334 9.86667 13.3334 9.6 13.8001 9.4V9.33333H11.8001C11.4668 9.33333 11.1334 9.06667 11.1334 8.66667V6C11.1334 5.6 11.4668 5.33333 11.8001 5.33333H13.8001V5.26667C13.3334 5.13333 13.1334 4.86667 13.1334 4.33333V3.33333H2.46676V7.33333H1.13343V2.66667C1.13343 2.26667 1.46676 2 1.8001 2H13.8001C14.2001 2 14.4668 2.26667 14.4668 2.66667V5.33333C14.8668 5.33333 15.1334 5.6 15.1334 6V8.66667C15.1334 9.06667 14.8668 9.33333 14.4668 9.33333V12C14.4668 12.4 14.2001 12.6667 13.8001 12.6667H9.8001V11.3333H13.1334V10.3333ZM12.4668 8H13.8001V6.66667H12.4668V8Z" fill="white"/>
</g>
</svg>
