<svg width="20" height="92" viewBox="0 0 20 92" fill="none" xmlns="http://www.w3.org/2000/svg">
<path d="M20 0V10.4849C20 14.2818 20 16.1803 19.4 17.6409C18.7999 19.1016 14.4007 23.5526 5.60237 32.4546C2.13353 35.9643 0 40.739 0 46C0 51.261 2.13353 56.0357 5.60237 59.5454C14.4007 68.4474 18.7999 72.8984 19.4 74.3591C20 75.8197 20 77.7182 20 81.5151V92V0Z" fill="white"/>
<path fill-rule="evenodd" clip-rule="evenodd" d="M14.7803 46.5303L11.0303 50.2803L9.96967 49.2197L13.1893 46L9.96967 42.7803L11.0303 41.7197L14.7803 45.4697C15.0732 45.7626 15.0732 46.2374 14.7803 46.5303Z" fill="#46B0FB"/>
</svg>
