<svg width="20" height="20" viewBox="0 0 20 20" fill="none" xmlns="http://www.w3.org/2000/svg">
<path d="M10.8083 1.43334C10.65 1.01667 10.375 0.833336 10 0.833336C9.625 0.833336 9.35833 1.01667 9.19167 1.43334C8.45 3.29167 7.09167 5 5 5V6.66667C7.175 6.66667 8.49167 5.44167 9.05 4.01667H9.16667V12.5H10.8333V4.01667H10.9417C11.5 5.44167 12.8167 6.66667 15 6.66667V5C12.9083 5 11.5167 3.3 10.8083 1.43334ZM17.5 9.16667H15.8333V15H4.16667V9.16667H2.5V15.8333C2.5 16.3083 2.86667 16.6667 3.33333 16.6667H16.6667C17.1417 16.6667 17.5 16.3083 17.5 15.8333V9.16667Z" fill="#5F5F5F"/>
</svg>
