<svg width="25" height="24" viewBox="0 0 25 24" fill="none" xmlns="http://www.w3.org/2000/svg">
<path d="M17.5 7.5L20.5 5.1V16.5L17.5 18.9V7.5ZM20.1 2.7V2.8L15.9 6.2C15.6 6.4 15.5 6.7 15.5 7V18H6.5V20H15.5V21C15.5 21.9 16.5 22.3 17.2 21.7L22.1 17.8C22.3 17.6 22.5 17.3 22.5 17V3C22.5 2.4 22.1 2 21.5 2H6.5V4H15.7C17.5 4 18.8 3.6 20.1 2.7Z" fill="#46B0FB"/>
<path d="M12.05 12C12.55 11.8 12.75 11.4 12.75 11C12.75 10.5 12.55 10.2 12.05 10C10.35 9.3 8.75 8 8.75 6H6.75C6.75 8.1 7.75 9.4 9.35 9.9V10H2.75V12H9.35V12.1C7.75 12.6 6.75 13.9 6.75 16H8.75C8.75 14 10.35 12.7 12.05 12Z" fill="#46B0FB"/>
</svg>
