<svg width="20" height="20" viewBox="0 0 20 20" fill="none" xmlns="http://www.w3.org/2000/svg">
<path d="M16.2415 5.61665L13.3332 5.12498V4.16665C13.3332 3.70831 12.9582 3.33331 12.4998 3.33331H2.49984C2.0415 3.33331 1.6665 3.70831 1.6665 4.16665V15C1.6665 16.3833 2.78317 17.5 4.1665 17.5C5.39984 17.5 6.4165 16.6166 6.62484 15.4416H6.73317C6.73317 16.2166 7.02484 16.6666 7.8165 16.6666H12.1832C12.9748 16.6666 13.2665 16.2166 13.2665 15.4416H13.3748C13.5832 16.6166 14.5998 17.5 15.8332 17.5C17.2165 17.5 18.3332 16.3833 18.3332 15V8.07498C18.3332 6.85831 17.4498 5.81665 16.2415 5.61665ZM4.1665 15.8333C3.70817 15.8333 3.33317 15.4583 3.33317 15C3.33317 14.5416 3.70817 14.1666 4.1665 14.1666C4.62484 14.1666 4.99984 14.5416 4.99984 15C4.99984 15.4583 4.62484 15.8333 4.1665 15.8333ZM4.1665 12.5C3.8915 12.5 3.60817 12.55 3.33317 12.6416V4.99998H11.6665V12.5H4.1665ZM6.6665 15C6.6665 14.725 6.6165 14.4416 6.52484 14.1666H13.4748C13.3832 14.4416 13.3332 14.725 13.3332 15H6.6665ZM15.8332 15.8333C15.3748 15.8333 14.9998 15.4583 14.9998 15C14.9998 14.5416 15.3748 14.1666 15.8332 14.1666C16.2915 14.1666 16.6665 14.5416 16.6665 15C16.6665 15.4583 16.2915 15.8333 15.8332 15.8333ZM16.6665 9.16665H14.9998V10.8333H16.6665V12.6416C16.3915 12.55 16.1082 12.5 15.8332 12.5H13.3332V6.81665L15.9748 7.25831C16.3748 7.32498 16.6665 7.67498 16.6665 8.07498V9.16665Z" fill="#EB6C2E"/>
</svg>
